<svg height='100px' width='100px'  fill="#000000" xmlns:x="http://ns.adobe.com/Extensibility/1.0/" xmlns:i="http://ns.adobe.com/AdobeIllustrator/10.0/" xmlns:graph="http://ns.adobe.com/Graphs/1.0/" xmlns="http://www.w3.org/2000/svg" xmlns:xlink="http://www.w3.org/1999/xlink" version="1.1" x="0px" y="0px" viewBox="0 0 100 100" style="enable-background:new 0 0 100 100;" xml:space="preserve"><g><g i:extraneous="self"><g><path d="M92.5,16.8H65.8V6.3c0-2.1-1.7-3.8-3.8-3.8H38c-2.1,0-3.8,1.7-3.8,3.8v10.5H7.5c-2.1,0-3.8,1.7-3.8,3.8s1.7,3.8,3.8,3.8     h5.3L17.6,88c0.4,5.3,4.9,9.5,10.3,9.5h44.2c5.4,0,9.9-4.2,10.3-9.5l4.9-63.6h5.3c2.1,0,3.8-1.7,3.8-3.8S94.6,16.8,92.5,16.8z      M41.8,10.1h16.4v6.7H41.8V10.1z M74.8,87.4c-0.1,1.4-1.3,2.5-2.7,2.5H27.9c-1.4,0-2.6-1.1-2.7-2.5l-4.8-63h59.3L74.8,87.4z"></path><path d="M39.9,77.7c2.1,0,3.8-1.7,3.8-3.8V40.3c0-2.1-1.7-3.8-3.8-3.8c-2.1,0-3.8,1.7-3.8,3.8v33.6C36.1,76,37.8,77.7,39.9,77.7z     "></path><path d="M60.1,77.7c2.1,0,3.8-1.7,3.8-3.8V40.3c0-2.1-1.7-3.8-3.8-3.8c-2.1,0-3.8,1.7-3.8,3.8v33.6C56.3,76,58,77.7,60.1,77.7z"></path></g></g></g></svg>