<svg id="Layer_1" enable-background="new 0 0 512 512" height="512" viewBox="0 0 512 512" width="512" xmlns="http://www.w3.org/2000/svg"><g><path d="m512 213.5v160.56c0 29.5-23.933 53.5-53.352 53.5h-11.682l-45.968 54.1c-1.429 1.68-3.517 2.65-5.716 2.65s-4.287-.97-5.706-2.65l-45.968-54.1h-90.047c-29.409 0-53.342-24-53.342-53.5v-206.56c0-4.14 3.358-7.5 7.495-7.5h250.934c29.419 0 53.352 24 53.352 53.5z" fill="#09eaa3"/><g><path d="m512 213.5v160.56c0 29.5-23.933 53.5-53.352 53.5h-9.723c24.523-4.81 43.09-26.52 43.09-52.5v-161.56c0-29.5-23.933-53.5-53.352-53.5h19.986c29.418 0 53.351 24 53.351 53.5z" fill="#14bb87"/></g><g><path d="m411.711 143.5v154.56c0 29.5-23.933 53.5-53.343 53.5h-189.976l-45.968 54.1c-1.419 1.68-3.508 2.65-5.706 2.65s-4.287-.97-5.716-2.65l-45.968-54.1h-11.681c-29.419 0-53.353-24-53.353-53.5v-154.56c0-29.5 23.933-53.5 53.353-53.5h305.016c29.408 0 53.342 24 53.342 53.5z" fill="#ff6b81"/><path d="m411.711 143.5v154.56c0 29.5-23.933 53.5-53.343 53.5h-19.986c29.409 0 53.343-24 53.343-53.5v-154.56c0-29.5-23.933-53.5-53.343-53.5h19.986c29.409 0 53.343 24 53.343 53.5z" fill="#ed2061"/></g><path d="m253.612 479.66c0 17.83-14.48 32.34-32.277 32.34h-189.058c-17.797 0-32.277-14.51-32.277-32.34s14.48-32.33 32.277-32.33h2.808l16.868-23.3c1.409-1.95 3.667-3.11 6.066-3.11 2.408 0 4.667 1.16 6.076 3.11l16.868 23.3h140.371c17.798 0 32.278 14.5 32.278 32.33z" fill="#4dd4f7"/><path d="m512 32.34c0 17.83-14.48 32.33-32.277 32.33h-19.986l-16.868 23.3c-1.409 1.95-3.667 3.11-6.066 3.11-2.408 0-4.667-1.16-6.076-3.11l-16.858-23.3h-123.203c-17.797 0-32.277-14.5-32.277-32.33s14.48-32.34 32.277-32.34h189.057c17.797 0 32.277 14.51 32.277 32.34z" fill="#fbdf63"/><path d="m512 32.34c0 17.83-14.48 32.33-32.277 32.33h-19.986c17.797 0 32.277-14.5 32.277-32.33s-14.48-32.34-32.277-32.34h19.986c17.797 0 32.277 14.51 32.277 32.34z" fill="#ffa402"/><path d="m253.612 479.66c0 17.83-14.48 32.34-32.277 32.34h-19.986c17.797 0 32.277-14.51 32.277-32.34s-14.48-32.33-32.277-32.33h19.986c17.797 0 32.277 14.5 32.277 32.33z" fill="#00c2f3"/><g fill="#fff"><path d="m80.274 161.124c-4.143 0-7.5 3.357-7.5 7.5v73.108c0 4.143 3.357 7.5 7.5 7.5s7.5-3.357 7.5-7.5v-73.108c0-4.142-3.358-7.5-7.5-7.5z"/><path d="m149.977 196.762c4.143 0 7.5-3.357 7.5-7.5s-3.357-7.5-7.5-7.5h-8.26v-13.138c0-4.143-3.357-7.5-7.5-7.5s-7.5 3.357-7.5 7.5v13.138h-8.261c-4.143 0-7.5 3.357-7.5 7.5v31.521c0 4.143 3.357 7.5 7.5 7.5h24.021v16.52h-24.021c-4.143 0-7.5 3.357-7.5 7.5s3.357 7.5 7.5 7.5h8.261v13.138c0 4.143 3.357 7.5 7.5 7.5s7.5-3.357 7.5-7.5v-13.138h8.26c4.143 0 7.5-3.357 7.5-7.5v-31.52c0-4.143-3.357-7.5-7.5-7.5h-24.021v-16.521z"/><path d="m255.684 181.762h-7.091l1.656-12.123c.561-4.104-2.312-7.885-6.416-8.445-4.09-.577-7.886 2.311-8.445 6.416l-1.933 14.152h-15.862l1.656-12.123c.561-4.104-2.312-7.885-6.416-8.445-4.09-.577-7.886 2.311-8.445 6.416l-1.933 14.152h-11.311c-4.143 0-7.5 3.357-7.5 7.5s3.357 7.5 7.5 7.5h9.262l-6.561 48.04h-9.867c-4.143 0-7.5 3.357-7.5 7.5s3.357 7.5 7.5 7.5h7.818l-1.491 10.918c-.561 4.104 2.312 7.885 6.416 8.445.344.048.686.07 1.024.07 3.691 0 6.908-2.727 7.421-6.486l1.768-12.947h15.862l-1.491 10.918c-.561 4.104 2.312 7.885 6.416 8.445.344.048.686.07 1.024.07 3.691 0 6.908-2.727 7.421-6.486l1.768-12.947h10.584c4.143 0 7.5-3.357 7.5-7.5s-3.357-7.5-7.5-7.5h-8.535l6.561-48.04h9.14c4.143 0 7.5-3.357 7.5-7.5s-3.357-7.5-7.5-7.5zm-30.84 63.04h-15.862l6.561-48.04h15.862z"/><path d="m323.316 217.277c-6.547-4.149-10.456-11.002-10.456-18.331v-.319c0-4.143-3.357-7.5-7.5-7.5s-7.5 3.357-7.5 7.5v.319c0 12.496 6.515 24.086 17.427 31.001 5.735 3.636 9.037 10.114 8.615 16.908-.568 9.157-8.186 16.774-17.343 17.343-5.207.313-10.146-1.453-13.919-5-3.778-3.551-5.859-8.359-5.859-13.541 0-4.143-3.357-7.5-7.5-7.5s-7.5 3.357-7.5 7.5c0 9.229 3.858 18.148 10.586 24.472 6.297 5.917 14.379 9.107 22.958 9.107.718 0 1.439-.022 2.164-.067 16.847-1.045 30.339-14.537 31.384-31.384.76-12.254-5.201-23.944-15.557-30.508z"/><path d="m80.273 264.236c-4.142 0-7.5 3.358-7.5 7.5s3.358 7.5 7.5 7.5 7.5-3.358 7.5-7.5-3.358-7.5-7.5-7.5z"/><circle cx="305.363" cy="168.621" r="7.5"/></g></g></svg>