<svg height='100px' width='100px'  fill="#000000" xmlns:x="http://ns.adobe.com/Extensibility/1.0/" xmlns:i="http://ns.adobe.com/AdobeIllustrator/10.0/" xmlns:graph="http://ns.adobe.com/Graphs/1.0/" xmlns="http://www.w3.org/2000/svg" xmlns:xlink="http://www.w3.org/1999/xlink" version="1.1" x="0px" y="0px" viewBox="0 0 100 100" style="enable-background:new 0 0 100 100;" xml:space="preserve"><g><g i:extraneous="self"><g><circle cx="49.9" cy="36.7" r="7.1"></circle><path d="M69.2,46.5c0.1-0.1,0.2-0.3,0.3-0.4H30.6c0.1,0.1,0.2,0.2,0.3,0.4l3.1,5.1h8.2v16.3c0,1.4,1.1,2.6,2.6,2.6h10.5     c1.4,0,2.6-1.2,2.6-2.6V51.6h8.4L69.2,46.5z"></path><circle cx="20.5" cy="36.7" r="7.1"></circle><path d="M29.3,47.5c-0.5-0.8-1.4-1.3-2.3-1.3H14c-1,0-1.8,0.5-2.3,1.3L2.9,62c-0.7,1.1-0.5,2.6,0.4,3.5c1.3,1.2,3.3,0.8,4.2-0.6     l5.1-8.5l0,11.4c0,1.4,1.2,2.6,2.6,2.6h10.5c1.4,0,2.6-1.2,2.6-2.6V56.4l5.1,8.5c0.5,0.8,1.4,1.3,2.3,1.3c0.5,0,1.1-0.2,1.6-0.5     c1.2-0.8,1.4-2.5,0.7-3.8L29.3,47.5z"></path><circle cx="79.5" cy="36.7" r="7.1"></circle><path d="M97.1,61.9l-8.7-14.5c-0.5-0.8-1.4-1.3-2.3-1.3H73.1c-1,0-1.8,0.5-2.3,1.3L62,62c-0.7,1.1-0.5,2.6,0.4,3.5     c1.3,1.2,3.3,0.8,4.2-0.6l5.1-8.5l0,11.4c0,1.4,1.2,2.6,2.6,2.6h10.5c1.4,0,2.6-1.2,2.6-2.6V56.4l5.1,8.5     c0.5,0.8,1.4,1.3,2.3,1.3c0.5,0,1.1-0.2,1.6-0.5C97.6,64.9,97.8,63.2,97.1,61.9z"></path></g></g></g></svg>