<svg height='100px' width='100px'  fill="#000000" xmlns="http://www.w3.org/2000/svg" xmlns:xlink="http://www.w3.org/1999/xlink" version="1.1" x="0px" y="0px" viewBox="0 0 100 100" enable-background="new 0 0 100 100" xml:space="preserve"><path d="M50,92.167C26.749,92.167,7.833,73.251,7.833,50S26.749,7.833,50,7.833S92.167,26.749,92.167,50S73.251,92.167,50,92.167z   M50,12.833c-20.494,0-37.167,16.673-37.167,37.167S29.506,87.167,50,87.167S87.167,70.494,87.167,50S70.494,12.833,50,12.833z   M41.291,67.738c-0.432,0-0.863-0.111-1.25-0.335c-0.773-0.446-1.25-1.271-1.25-2.165V34.762c0-0.894,0.477-1.719,1.25-2.165  c0.773-0.447,1.727-0.447,2.5,0l26.393,15.238c0.773,0.446,1.25,1.271,1.25,2.165s-0.477,1.719-1.25,2.165L42.541,67.403  C42.154,67.627,41.723,67.738,41.291,67.738z M43.791,39.092v21.816L62.684,50L43.791,39.092z"></path></svg>