<svg height='100px' width='100px'  fill="#000000" xmlns="http://www.w3.org/2000/svg" xmlns:xlink="http://www.w3.org/1999/xlink" version="1.1" x="0px" y="0px" viewBox="0 0 100 100" enable-background="new 0 0 100 100" xml:space="preserve"><g><path fill="none" d="M40.324,47.195c-0.287,0.953-0.443,1.963-0.443,3.009c0,5.802,4.721,10.522,10.523,10.522   s10.521-4.721,10.521-10.522s-4.719-10.523-10.521-10.523c-2.494,0-4.787,0.874-6.594,2.33"></path><path fill="none" d="M45.67,44.412c1.32-1.115,3.025-1.788,4.887-1.788c4.186,0,7.58,3.393,7.58,7.579s-3.395,7.58-7.58,7.58   c-4.184,0-7.578-3.395-7.578-7.58c0-0.746,0.109-1.467,0.311-2.148"></path><path fill="#000000" d="M50.557,57.783c4.186,0,7.58-3.395,7.58-7.58s-3.395-7.579-7.58-7.579c-1.861,0-3.566,0.673-4.887,1.788   L50,50l-6.709-1.945c-0.201,0.682-0.312,1.402-0.312,2.148C42.979,54.389,46.373,57.783,50.557,57.783z"></path><path fill="#000000" d="M77.775,49.264C70.867,39.88,60.604,34.5,49.615,34.5c-10.498,0-20.467,4.993-27.348,13.699l-0.99,1.254   l0.947,1.285C29.133,60.121,39.398,65.5,50.383,65.5c10.5,0,20.469-4.992,27.35-13.699l0.99-1.252L77.775,49.264z M50.404,60.726   c-5.803,0-10.523-4.721-10.523-10.522c0-1.046,0.156-2.055,0.443-3.008l-2.414-0.7c-0.35,1.177-0.541,2.419-0.541,3.708   c0,3.929,1.756,7.447,4.514,9.84c-5.848-1.783-11.154-5.39-15.293-10.5c4.24-4.875,9.619-8.265,15.467-9.845l0.219,0.329   l1.537,1.984c1.805-1.456,4.098-2.33,6.594-2.33c5.801,0,10.521,4.719,10.521,10.523C60.926,56.006,56.207,60.726,50.404,60.726z    M58.975,59.998c2.73-2.391,4.465-5.891,4.465-9.794c0-4.046-1.855-7.667-4.758-10.06c5.625,1.839,10.725,5.368,14.73,10.314   C69.42,55.044,64.424,58.31,58.975,59.998z"></path><g><path fill="#000000" d="M50,98C23.533,98,2,76.468,2,50C2,23.533,23.533,2,50,2c26.468,0,48,21.533,48,48    C98,76.468,76.468,98,50,98z M50,5C25.187,5,5,25.187,5,50c0,24.813,20.187,45,45,45c24.813,0,45-20.187,45-45    C95,25.187,74.813,5,50,5z"></path></g><g><path fill="#000000" d="M50.599,89.751l-0.001-0.5c0.664-0.001,1.332-0.019,1.987-0.053l0.025,0.5    C51.947,89.732,51.271,89.75,50.599,89.751z M48.586,89.702c-0.658-0.032-1.333-0.082-2.007-0.148l0.05-0.498    c0.665,0.066,1.331,0.115,1.981,0.146L48.586,89.702z M54.617,89.546l-0.051-0.498c0.659-0.066,1.322-0.15,1.972-0.25l0.076,0.494    C55.956,89.393,55.284,89.479,54.617,89.546z M44.582,89.304c-0.665-0.1-1.332-0.218-1.982-0.351l0.1-0.49    c0.643,0.131,1.301,0.248,1.957,0.347L44.582,89.304z M58.595,88.937l-0.102-0.49c0.654-0.134,1.306-0.285,1.938-0.449    l0.125,0.484C59.916,88.647,59.256,88.801,58.595,88.937z M40.638,88.503c-0.644-0.165-1.296-0.351-1.937-0.551l0.149-0.477    c0.632,0.197,1.276,0.38,1.912,0.543L40.638,88.503z M62.49,87.928l-0.15-0.477c0.638-0.201,1.271-0.418,1.881-0.645l0.174,0.469    C63.776,87.505,63.136,87.725,62.49,87.928z M36.792,87.302c-0.64-0.236-1.271-0.488-1.874-0.748l0.197-0.459    c0.595,0.256,1.218,0.504,1.85,0.738L36.792,87.302z M66.259,86.528l-0.197-0.459c0.611-0.264,1.218-0.544,1.802-0.831    l0.221,0.449C67.493,85.978,66.879,86.261,66.259,86.528z M33.085,85.714c-0.592-0.29-1.193-0.604-1.787-0.933l0.242-0.438    c0.587,0.325,1.18,0.635,1.764,0.921L33.085,85.714z M69.863,84.755l-0.242-0.438c0.568-0.316,1.144-0.655,1.709-1.009    l0.266,0.424C71.022,84.09,70.44,84.435,69.863,84.755z M29.562,83.759c-0.575-0.358-1.142-0.731-1.683-1.109l0.286-0.41    c0.534,0.373,1.093,0.741,1.661,1.096L29.562,83.759z M73.271,82.624l-0.285-0.41c0.533-0.371,1.072-0.768,1.601-1.177    l0.307,0.395C74.358,81.847,73.812,82.248,73.271,82.624z M26.256,81.459c-0.523-0.405-1.049-0.833-1.562-1.273l0.325-0.379    c0.507,0.434,1.025,0.856,1.542,1.256L26.256,81.459z M76.451,80.159l-0.326-0.379c0.504-0.434,1-0.883,1.476-1.334l0.344,0.363    C77.464,79.266,76.961,79.72,76.451,80.159z M23.201,78.839c-0.49-0.465-0.969-0.943-1.425-1.423l0.362-0.344    c0.45,0.473,0.923,0.945,1.407,1.403L23.201,78.839z M79.366,77.388l-0.361-0.346c0.449-0.472,0.898-0.968,1.334-1.475    l0.379,0.326C80.276,76.407,79.822,76.909,79.366,77.388z M20.424,75.924c-0.441-0.513-0.87-1.036-1.274-1.558l0.396-0.307    c0.399,0.515,0.822,1.032,1.258,1.538L20.424,75.924z M81.991,74.335l-0.395-0.307c0.402-0.519,0.799-1.058,1.179-1.603    l0.41,0.285C82.801,73.264,82.399,73.81,81.991,74.335z M17.956,72.749c-0.38-0.545-0.754-1.109-1.11-1.678l0.424-0.266    c0.352,0.562,0.721,1.119,1.097,1.656L17.956,72.749z M84.295,71.031l-0.424-0.266c0.347-0.555,0.687-1.132,1.011-1.715    l0.438,0.244C84.99,69.884,84.646,70.469,84.295,71.031z M15.822,69.341c-0.323-0.579-0.637-1.178-0.935-1.78l0.448-0.221    c0.293,0.595,0.604,1.186,0.923,1.757L15.822,69.341z M86.253,67.509l-0.449-0.221c0.291-0.589,0.571-1.197,0.834-1.809    l0.459,0.197C86.831,66.296,86.547,66.912,86.253,67.509z M14.045,65.739c-0.265-0.613-0.517-1.24-0.749-1.864l0.469-0.174    c0.229,0.615,0.478,1.234,0.739,1.839L14.045,65.739z M87.845,63.805l-0.469-0.174c0.228-0.613,0.444-1.248,0.645-1.886    l0.477,0.148C88.295,62.54,88.075,63.184,87.845,63.805z M12.642,61.972c-0.203-0.642-0.39-1.293-0.557-1.936l0.484-0.125    c0.164,0.634,0.349,1.276,0.549,1.91L12.642,61.972z M89.05,59.958l-0.484-0.125c0.166-0.645,0.316-1.296,0.447-1.937l0.49,0.1    C89.37,58.645,89.218,59.305,89.05,59.958z M11.629,58.076c-0.135-0.651-0.255-1.318-0.357-1.981l0.494-0.076    c0.101,0.655,0.219,1.313,0.352,1.956L11.629,58.076z M89.854,56.017L89.36,55.94c0.098-0.638,0.182-1.301,0.249-1.972    l0.498,0.051C90.038,54.698,89.953,55.37,89.854,56.017z M11.017,54.099c-0.068-0.664-0.12-1.339-0.154-2.007l0.499-0.025    c0.034,0.659,0.085,1.325,0.152,1.981L11.017,54.099z M90.258,52.013l-0.5-0.025c0.033-0.655,0.05-1.324,0.05-1.987v-0.159h0.5V50    C90.308,50.671,90.291,51.349,90.258,52.013z M11.308,50.08h-0.5V50c0-0.638,0.016-1.288,0.046-1.931l0.499,0.023    c-0.03,0.636-0.045,1.278-0.045,1.908V50.08z M89.75,47.855c-0.035-0.662-0.088-1.329-0.157-1.981l0.498-0.053    c0.069,0.661,0.123,1.336,0.159,2.006L89.75,47.855z M11.498,46.11L11,46.061c0.066-0.667,0.149-1.34,0.248-1.998l0.494,0.074    C11.645,44.787,11.562,45.451,11.498,46.11z M89.338,43.903c-0.104-0.661-0.224-1.319-0.356-1.955l0.49-0.103    c0.134,0.645,0.256,1.311,0.36,1.98L89.338,43.903z M12.087,42.181l-0.49-0.1c0.132-0.653,0.284-1.313,0.449-1.962l0.484,0.124    C12.367,40.883,12.218,41.535,12.087,42.181z M88.526,40.014c-0.168-0.641-0.354-1.283-0.553-1.909l0.477-0.151    c0.201,0.634,0.39,1.285,0.561,1.934L88.526,40.014z M13.071,38.331l-0.478-0.148c0.199-0.638,0.417-1.281,0.648-1.911l0.47,0.173    C13.483,37.066,13.268,37.701,13.071,38.331z M87.323,36.226c-0.233-0.623-0.483-1.242-0.743-1.838l0.459-0.199    c0.263,0.604,0.516,1.231,0.753,1.862L87.323,36.226z M14.446,34.594l-0.46-0.196c0.26-0.609,0.542-1.227,0.839-1.833l0.449,0.22    C14.982,33.383,14.703,33.992,14.446,34.594z M85.744,32.589c-0.297-0.596-0.608-1.187-0.927-1.756l0.436-0.244    c0.323,0.576,0.639,1.174,0.938,1.777L85.744,32.589z M16.195,31.018l-0.438-0.242c0.322-0.583,0.666-1.167,1.021-1.737    l0.425,0.264C16.852,29.866,16.513,30.443,16.195,31.018z M83.805,29.127c-0.352-0.559-0.722-1.115-1.1-1.654l0.408-0.287    c0.384,0.545,0.759,1.109,1.115,1.674L83.805,29.127z M18.295,27.64l-0.411-0.285c0.381-0.548,0.781-1.095,1.19-1.625l0.396,0.306    C19.066,26.559,18.671,27.098,18.295,27.64z M81.523,25.878c-0.416-0.53-0.841-1.047-1.264-1.536l0.379-0.327    c0.428,0.495,0.857,1.018,1.278,1.554L81.523,25.878z M20.725,24.492l-0.38-0.325c0.433-0.506,0.886-1.009,1.347-1.496    l0.363,0.344C21.6,23.496,21.152,23.993,20.725,24.492z M78.923,22.872c-0.462-0.481-0.936-0.953-1.41-1.401l0.344-0.363    c0.479,0.454,0.96,0.931,1.428,1.419L78.923,22.872z M23.458,21.606l-0.346-0.361c0.483-0.461,0.984-0.917,1.49-1.353l0.326,0.379    C24.43,20.702,23.935,21.151,23.458,21.606z M76.035,20.141c-0.498-0.425-1.017-0.846-1.544-1.252l0.305-0.396    c0.534,0.412,1.061,0.838,1.563,1.269L76.035,20.141z M26.466,19.012l-0.308-0.395c0.523-0.408,1.068-0.81,1.618-1.195    l0.287,0.409C27.52,18.212,26.982,18.609,26.466,19.012z M72.886,17.715c-0.542-0.375-1.102-0.743-1.664-1.091l0.264-0.425    c0.569,0.353,1.136,0.725,1.686,1.105L72.886,17.715z M29.718,16.733l-0.266-0.424c0.567-0.355,1.148-0.7,1.729-1.025l0.244,0.437    C30.852,16.042,30.277,16.382,29.718,16.733z M69.506,15.617c-0.582-0.321-1.177-0.63-1.767-0.917l0.219-0.449    c0.598,0.291,1.2,0.604,1.79,0.929L69.506,15.617z M33.181,14.796l-0.222-0.448c0.598-0.296,1.211-0.58,1.823-0.844l0.198,0.459    C34.377,14.224,33.771,14.504,33.181,14.796z M65.93,13.873c-0.612-0.26-1.235-0.507-1.853-0.733l0.172-0.47    c0.625,0.229,1.256,0.479,1.876,0.743L65.93,13.873z M36.82,13.221l-0.175-0.469c0.624-0.233,1.264-0.454,1.903-0.656l0.15,0.477    C38.069,12.773,37.437,12.991,36.82,13.221z M62.188,12.502c-0.631-0.195-1.273-0.377-1.912-0.54l0.123-0.484    c0.646,0.165,1.299,0.348,1.938,0.546L62.188,12.502z M40.608,12.021l-0.126-0.483c0.649-0.17,1.308-0.324,1.959-0.459    l0.102,0.489C41.9,11.702,41.25,11.854,40.608,12.021z M58.339,11.521c-0.644-0.129-1.303-0.244-1.959-0.342l0.074-0.494    c0.664,0.099,1.331,0.215,1.982,0.346L58.339,11.521z M44.499,11.215l-0.076-0.494c0.66-0.102,1.332-0.189,1.996-0.257    l0.052,0.497C45.814,11.028,45.151,11.114,44.499,11.215z M54.408,10.937c-0.653-0.064-1.32-0.112-1.982-0.143l0.023-0.499    c0.67,0.031,1.346,0.08,2.008,0.144L54.408,10.937z M48.452,10.806l-0.026-0.499c0.664-0.035,1.341-0.054,2.013-0.056l0.001,0.5    C49.776,10.752,49.107,10.771,48.452,10.806z"></path></g><g><polygon fill="#000000" points="41.936,39.58 20.983,13.678 21.572,13.213 42.57,39.794   "></polygon></g><g><rect x="4.42" y="42.977" transform="matrix(0.9543 0.299 -0.299 0.9543 14.1816 -5.9864)" fill="#000000" width="44.468" height="0.75"></rect></g></g></svg>