<svg height='100px' width='100px'  fill="#000000" xmlns:x="http://ns.adobe.com/Extensibility/1.0/" xmlns:i="http://ns.adobe.com/AdobeIllustrator/10.0/" xmlns:graph="http://ns.adobe.com/Graphs/1.0/" xmlns="http://www.w3.org/2000/svg" xmlns:xlink="http://www.w3.org/1999/xlink" version="1.1" x="0px" y="0px" viewBox="0 0 100 100" style="enable-background:new 0 0 100 100;" xml:space="preserve"><style type="text/css">
	.st0{fill-rule:evenodd;clip-rule:evenodd;}
</style><g><g i:extraneous="self"><g><path class="st0" d="M96.2,43l-4.4-4.4c-1.7-1.7-4.4-1.7-6.1,0L75,49.3V9.8c0-1.3-1.1-2.4-2.4-2.4H4.9c-1.3,0-2.4,1.1-2.4,2.4     v80.3c0,1.3,1.1,2.4,2.4,2.4h67.7c1.3,0,2.4-1.1,2.4-2.4V70.3l21.2-21.2C97.9,47.4,97.9,44.7,96.2,43z M62.8,75.8l-5.1,1.4     l1.4-5.1l0.9-0.9l3.7,3.7L62.8,75.8z M67.1,71.4l-3.7-3.7L82.2,49l3.7,3.7L67.1,71.4z M70.2,87.8H7.3V12.2h62.9v41.9L55.6,68.8     c-0.5,0.5-0.9,1.2-1.1,1.9l-1.7,6.4c-0.4,1.4,0,2.9,1.1,4c0.8,0.8,1.8,1.2,2.9,1.2c0.4,0,0.7,0,1.1-0.1l6.3-1.7     c0.7-0.2,1.4-0.6,1.9-1.1l4.2-4.2V87.8z M89.3,49.3l-3.7-3.7l3.2-3.2l3.7,3.7L89.3,49.3z"></path><path class="st0" d="M29.4,30.3h27.6c1.3,0,2.4-1.1,2.4-2.4c0-1.3-1.1-2.4-2.4-2.4H29.4c-1.3,0-2.4,1.1-2.4,2.4     C27,29.2,28,30.3,29.4,30.3z"></path><path class="st0" d="M29.4,45h27.6c1.3,0,2.4-1.1,2.4-2.4c0-1.3-1.1-2.4-2.4-2.4H29.4c-1.3,0-2.4,1.1-2.4,2.4     C27,44,28,45,29.4,45z"></path><path class="st0" d="M29.4,59.8h27.6c1.3,0,2.4-1.1,2.4-2.4S58.2,55,56.9,55H29.4C28,55,27,56,27,57.4S28,59.8,29.4,59.8z"></path><path class="st0" d="M44.4,69.7h-15c-1.3,0-2.4,1.1-2.4,2.4s1.1,2.4,2.4,2.4h15c1.3,0,2.4-1.1,2.4-2.4S45.7,69.7,44.4,69.7z"></path><circle class="st0" cx="18.9" cy="27.9" r="3.7"></circle><circle class="st0" cx="18.9" cy="42.6" r="3.7"></circle><circle class="st0" cx="18.9" cy="57.4" r="3.7"></circle><circle class="st0" cx="18.9" cy="72.1" r="3.7"></circle></g></g></g></svg>